<svg width="148" height="20" viewBox="0 0 148 20" fill="none" xmlns="http://www.w3.org/2000/svg">
<path d="M16.673 10.1717C17.7437 9.36184 17.1709 7.65517 15.8284 7.65517H13.3992C12.7853 7.65517 12.243 7.25521 12.0617 6.66868L11.3375 4.32637C10.9309 3.01106 9.0691 3.01106 8.66246 4.32637L7.93832 6.66868C7.75699 7.25521 7.21469 7.65517 6.60078 7.65517H4.12961C2.79142 7.65517 2.21592 9.35274 3.27822 10.1665L5.39469 11.7879C5.85885 12.1435 6.05314 12.7501 5.88196 13.3092L5.11296 15.8207C4.71416 17.1232 6.22167 18.1704 7.30301 17.342L9.14861 15.9281C9.65097 15.5432 10.349 15.5432 10.8514 15.9281L12.6807 17.3295C13.7636 18.159 15.2725 17.1079 14.8696 15.8046L14.09 13.2827C13.9159 12.7198 14.113 12.1081 14.5829 11.7526L16.673 10.1717Z" fill="#FFAD33"/>
<path d="M36.673 10.1717C37.7437 9.36184 37.1709 7.65517 35.8284 7.65517H33.3992C32.7853 7.65517 32.243 7.25521 32.0617 6.66868L31.3375 4.32637C30.9309 3.01106 29.0691 3.01106 28.6625 4.32637L27.9383 6.66868C27.757 7.25521 27.2147 7.65517 26.6008 7.65517H24.1296C22.7914 7.65517 22.2159 9.35274 23.2782 10.1665L25.3947 11.7879C25.8588 12.1435 26.0531 12.7501 25.882 13.3092L25.113 15.8207C24.7142 17.1232 26.2217 18.1704 27.303 17.342L29.1486 15.9281C29.651 15.5432 30.349 15.5432 30.8514 15.9281L32.6807 17.3295C33.7636 18.159 35.2725 17.1079 34.8696 15.8046L34.09 13.2827C33.9159 12.7198 34.113 12.1081 34.5829 11.7526L36.673 10.1717Z" fill="#FFAD33"/>
<path d="M56.673 10.1717C57.7437 9.36184 57.1709 7.65517 55.8284 7.65517H53.3992C52.7853 7.65517 52.243 7.25521 52.0617 6.66868L51.3375 4.32637C50.9309 3.01106 49.0691 3.01106 48.6625 4.32637L47.9383 6.66868C47.757 7.25521 47.2147 7.65517 46.6008 7.65517H44.1296C42.7914 7.65517 42.2159 9.35274 43.2782 10.1665L45.3947 11.7879C45.8588 12.1435 46.0531 12.7501 45.882 13.3092L45.113 15.8207C44.7142 17.1232 46.2217 18.1704 47.303 17.342L49.1486 15.9281C49.651 15.5432 50.349 15.5432 50.8514 15.9281L52.6807 17.3295C53.7636 18.159 55.2725 17.1079 54.8696 15.8046L54.09 13.2827C53.9159 12.7198 54.113 12.1081 54.5829 11.7526L56.673 10.1717Z" fill="#FFAD33"/>
<path d="M76.673 10.1717C77.7437 9.36184 77.1709 7.65517 75.8284 7.65517H73.3992C72.7853 7.65517 72.243 7.25521 72.0617 6.66868L71.3375 4.32637C70.9309 3.01106 69.0691 3.01106 68.6625 4.32637L67.9383 6.66868C67.757 7.25521 67.2147 7.65517 66.6008 7.65517H64.1296C62.7914 7.65517 62.2159 9.35274 63.2782 10.1665L65.3947 11.7879C65.8588 12.1435 66.0531 12.7501 65.882 13.3092L65.113 15.8207C64.7142 17.1232 66.2217 18.1704 67.303 17.342L69.1486 15.9281C69.651 15.5432 70.349 15.5432 70.8514 15.9281L72.6807 17.3295C73.7636 18.159 75.2725 17.1079 74.8696 15.8046L74.09 13.2827C73.9159 12.7198 74.113 12.1081 74.5829 11.7526L76.673 10.1717Z" fill="#FFAD33"/>
<path opacity="0.25" d="M96.673 10.1717C97.7437 9.36184 97.1709 7.65517 95.8284 7.65517H93.3992C92.7853 7.65517 92.243 7.25521 92.0617 6.66868L91.3375 4.32637C90.9309 3.01106 89.0691 3.01106 88.6625 4.32637L87.9383 6.66868C87.757 7.25521 87.2147 7.65517 86.6008 7.65517H84.1296C82.7914 7.65517 82.2159 9.35274 83.2782 10.1665L85.3947 11.7879C85.8588 12.1435 86.0531 12.7501 85.882 13.3092L85.113 15.8207C84.7142 17.1232 86.2217 18.1704 87.303 17.342L89.1486 15.9281C89.651 15.5432 90.349 15.5432 90.8514 15.9281L92.6807 17.3295C93.7636 18.159 95.2725 17.1079 94.8696 15.8046L94.09 13.2827C93.9159 12.7198 94.113 12.1081 94.5829 11.7526L96.673 10.1717Z" fill="black"/>
<path opacity="0.5" d="M112.354 17.758C111.449 16.8807 110.744 15.7607 110.24 14.398C109.745 13.0353 109.498 11.5747 109.498 10.016C109.498 8.42 109.759 6.922 110.282 5.522C110.805 4.11267 111.565 2.96 112.564 2.064H114.538V2.246C113.511 3.226 112.727 4.402 112.186 5.774C111.654 7.146 111.388 8.56 111.388 10.016C111.388 11.4347 111.64 12.8067 112.144 14.132C112.657 15.448 113.385 16.5913 114.328 17.562V17.758H112.354ZM115.299 6.6V4.794H118.673V15H116.657V6.6H115.299ZM120.525 13.012V11.472L125.103 4.92H127.385V11.304H128.617V13.012H127.385V15H125.425V13.012H120.525ZM125.551 7.02L122.681 11.304H125.551V7.02ZM136.725 6.488H132.189V8.882C132.385 8.63933 132.665 8.44333 133.029 8.294C133.393 8.13533 133.78 8.056 134.191 8.056C134.938 8.056 135.549 8.21933 136.025 8.546C136.501 8.87267 136.846 9.29267 137.061 9.806C137.276 10.31 137.383 10.8513 137.383 11.43C137.383 12.5033 137.075 13.3667 136.459 14.02C135.852 14.6733 134.984 15 133.855 15C132.791 15 131.942 14.734 131.307 14.202C130.672 13.67 130.313 12.9747 130.229 12.116H132.133C132.217 12.4893 132.404 12.788 132.693 13.012C132.992 13.236 133.37 13.348 133.827 13.348C134.378 13.348 134.793 13.1753 135.073 12.83C135.353 12.4847 135.493 12.0273 135.493 11.458C135.493 10.8793 135.348 10.4407 135.059 10.142C134.779 9.834 134.364 9.68 133.813 9.68C133.421 9.68 133.094 9.778 132.833 9.974C132.572 10.17 132.385 10.4313 132.273 10.758H130.397V4.766H136.725V6.488ZM138.595 17.758V17.562C139.537 16.5913 140.261 15.448 140.765 14.132C141.278 12.8067 141.535 11.4347 141.535 10.016C141.535 8.56 141.264 7.146 140.723 5.774C140.191 4.402 139.411 3.226 138.385 2.246V2.064H140.359C141.357 2.96 142.118 4.11267 142.641 5.522C143.163 6.922 143.425 8.42 143.425 10.016C143.425 11.5747 143.173 13.0353 142.669 14.398C142.174 15.7607 141.474 16.8807 140.569 17.758H138.595Z" fill="black"/>
</svg>
