<svg width="140" height="20" viewBox="0 0 140 20" fill="none" xmlns="http://www.w3.org/2000/svg">
<path d="M16.673 10.1717C17.7437 9.36184 17.1709 7.65517 15.8284 7.65517H13.3992C12.7853 7.65517 12.243 7.25521 12.0617 6.66868L11.3375 4.32637C10.9309 3.01106 9.0691 3.01106 8.66246 4.32637L7.93832 6.66868C7.75699 7.25521 7.21469 7.65517 6.60078 7.65517H4.12961C2.79142 7.65517 2.21592 9.35274 3.27822 10.1665L5.39469 11.7879C5.85885 12.1435 6.05314 12.7501 5.88196 13.3092L5.11296 15.8207C4.71416 17.1232 6.22167 18.1704 7.30301 17.342L9.14861 15.9281C9.65097 15.5432 10.349 15.5432 10.8514 15.9281L12.6807 17.3295C13.7636 18.159 15.2725 17.1079 14.8696 15.8046L14.09 13.2827C13.9159 12.7198 14.113 12.1081 14.5829 11.7526L16.673 10.1717Z" fill="#FFAD33"/>
<path d="M36.673 10.1717C37.7437 9.36184 37.1709 7.65517 35.8284 7.65517H33.3992C32.7853 7.65517 32.243 7.25521 32.0617 6.66868L31.3375 4.32637C30.9309 3.01106 29.0691 3.01106 28.6625 4.32637L27.9383 6.66868C27.757 7.25521 27.2147 7.65517 26.6008 7.65517H24.1296C22.7914 7.65517 22.2159 9.35274 23.2782 10.1665L25.3947 11.7879C25.8588 12.1435 26.0531 12.7501 25.882 13.3092L25.113 15.8207C24.7142 17.1232 26.2217 18.1704 27.303 17.342L29.1486 15.9281C29.651 15.5432 30.349 15.5432 30.8514 15.9281L32.6807 17.3295C33.7636 18.159 35.2725 17.1079 34.8696 15.8046L34.09 13.2827C33.9159 12.7198 34.113 12.1081 34.5829 11.7526L36.673 10.1717Z" fill="#FFAD33"/>
<path d="M56.673 10.1717C57.7437 9.36184 57.1709 7.65517 55.8284 7.65517H53.3992C52.7853 7.65517 52.243 7.25521 52.0617 6.66868L51.3375 4.32637C50.9309 3.01106 49.0691 3.01106 48.6625 4.32637L47.9383 6.66868C47.757 7.25521 47.2147 7.65517 46.6008 7.65517H44.1296C42.7914 7.65517 42.2159 9.35274 43.2782 10.1665L45.3947 11.7879C45.8588 12.1435 46.0531 12.7501 45.882 13.3092L45.113 15.8207C44.7142 17.1232 46.2217 18.1704 47.303 17.342L49.1486 15.9281C49.651 15.5432 50.349 15.5432 50.8514 15.9281L52.6807 17.3295C53.7636 18.159 55.2725 17.1079 54.8696 15.8046L54.09 13.2827C53.9159 12.7198 54.113 12.1081 54.5829 11.7526L56.673 10.1717Z" fill="#FFAD33"/>
<path d="M76.673 10.1717C77.7437 9.36184 77.1709 7.65517 75.8284 7.65517H73.3992C72.7853 7.65517 72.243 7.25521 72.0617 6.66868L71.3375 4.32637C70.9309 3.01106 69.0691 3.01106 68.6625 4.32637L67.9383 6.66868C67.757 7.25521 67.2147 7.65517 66.6008 7.65517H64.1296C62.7914 7.65517 62.2159 9.35274 63.2782 10.1665L65.3947 11.7879C65.8588 12.1435 66.0531 12.7501 65.882 13.3092L65.113 15.8207C64.7142 17.1232 66.2217 18.1704 67.303 17.342L69.1486 15.9281C69.651 15.5432 70.349 15.5432 70.8514 15.9281L72.6807 17.3295C73.7636 18.159 75.2725 17.1079 74.8696 15.8046L74.09 13.2827C73.9159 12.7198 74.113 12.1081 74.5829 11.7526L76.673 10.1717Z" fill="#FFAD33"/>
<path d="M89.9999 1.83329C89.7508 1.83145 89.5062 1.90032 89.2947 2.0319C89.0832 2.16348 88.9133 2.35236 88.8049 2.57662L86.9532 6.32995L82.8099 6.93162C82.5634 6.96713 82.3318 7.07094 82.1414 7.23129C81.9509 7.39163 81.8091 7.60212 81.7321 7.83889C81.6551 8.07567 81.6459 8.32929 81.7056 8.57101C81.7653 8.81274 81.8915 9.03292 82.0699 9.20662L85.0699 12.1283L84.3615 16.255C84.3194 16.5001 84.3467 16.7521 84.4403 16.9825C84.5338 17.213 84.69 17.4126 84.8911 17.559C85.0923 17.7053 85.3303 17.7925 85.5784 17.8106C85.8264 17.8287 86.0746 17.7771 86.2949 17.6616L89.9999 15.7133V1.83329Z" fill="#FFAD33"/>
<path opacity="0.25" d="M90 1.83595C90.2491 1.83404 90.5001 2.00001 90.5001 2.00001C90.5001 2.00001 91.0865 2.20807 91.195 2.44195L93.0467 6.35634L97.1901 6.98383C97.4366 7.02086 97.6681 7.12912 97.8586 7.29635C98.0491 7.46358 98.1909 7.68309 98.2679 7.93003C98.3449 8.17697 98.3541 8.44147 98.2944 8.69357C98.2347 8.94567 98.1085 9.1753 97.9301 9.35645L94.9301 12.4035L95.6384 16.7072C95.6806 16.9629 95.6533 17.2257 95.5597 17.466C95.4661 17.7064 95.3099 17.9146 95.1088 18.0672C94.9077 18.2198 94.6696 18.3107 94.4216 18.3296C94.1735 18.3486 93.9253 18.2947 93.705 18.1743L90 16.1423V1.83595Z" fill="black"/>
<path opacity="0.5" d="M112.354 17.758C111.449 16.8807 110.744 15.7607 110.24 14.398C109.745 13.0353 109.498 11.5747 109.498 10.016C109.498 8.42 109.759 6.922 110.282 5.522C110.805 4.11267 111.565 2.96 112.564 2.064H114.538V2.246C113.511 3.226 112.727 4.402 112.186 5.774C111.654 7.146 111.388 8.56 111.388 10.016C111.388 11.4347 111.64 12.8067 112.144 14.132C112.657 15.448 113.385 16.5913 114.328 17.562V17.758H112.354ZM122.397 6.488H117.861V8.882C118.057 8.63933 118.337 8.44333 118.701 8.294C119.065 8.13533 119.452 8.056 119.863 8.056C120.61 8.056 121.221 8.21933 121.697 8.546C122.173 8.87267 122.518 9.29267 122.733 9.806C122.948 10.31 123.055 10.8513 123.055 11.43C123.055 12.5033 122.747 13.3667 122.131 14.02C121.524 14.6733 120.656 15 119.527 15C118.463 15 117.614 14.734 116.979 14.202C116.344 13.67 115.985 12.9747 115.901 12.116H117.805C117.889 12.4893 118.076 12.788 118.365 13.012C118.664 13.236 119.042 13.348 119.499 13.348C120.05 13.348 120.465 13.1753 120.745 12.83C121.025 12.4847 121.165 12.0273 121.165 11.458C121.165 10.8793 121.02 10.4407 120.731 10.142C120.451 9.834 120.036 9.68 119.485 9.68C119.093 9.68 118.766 9.778 118.505 9.974C118.244 10.17 118.057 10.4313 117.945 10.758H116.069V4.766H122.397V6.488ZM131.407 6.488H126.871V8.882C127.067 8.63933 127.347 8.44333 127.711 8.294C128.075 8.13533 128.462 8.056 128.873 8.056C129.619 8.056 130.231 8.21933 130.707 8.546C131.183 8.87267 131.528 9.29267 131.743 9.806C131.957 10.31 132.065 10.8513 132.065 11.43C132.065 12.5033 131.757 13.3667 131.141 14.02C130.534 14.6733 129.666 15 128.537 15C127.473 15 126.623 14.734 125.989 14.202C125.354 13.67 124.995 12.9747 124.911 12.116H126.815C126.899 12.4893 127.085 12.788 127.375 13.012C127.673 13.236 128.051 13.348 128.509 13.348C129.059 13.348 129.475 13.1753 129.755 12.83C130.035 12.4847 130.175 12.0273 130.175 11.458C130.175 10.8793 130.03 10.4407 129.741 10.142C129.461 9.834 129.045 9.68 128.495 9.68C128.103 9.68 127.776 9.778 127.515 9.974C127.253 10.17 127.067 10.4313 126.955 10.758H125.079V4.766H131.407V6.488ZM133.276 17.758V17.562C134.219 16.5913 134.942 15.448 135.446 14.132C135.96 12.8067 136.216 11.4347 136.216 10.016C136.216 8.56 135.946 7.146 135.404 5.774C134.872 4.402 134.093 3.226 133.066 2.246V2.064H135.04C136.039 2.96 136.8 4.11267 137.322 5.522C137.845 6.922 138.106 8.42 138.106 10.016C138.106 11.5747 137.854 13.0353 137.35 14.398C136.856 15.7607 136.156 16.8807 135.25 17.758H133.276Z" fill="black"/>
</svg>
