<svg width="140" height="20" viewBox="0 0 140 20" fill="none" xmlns="http://www.w3.org/2000/svg">
<path d="M16.673 10.1717C17.7437 9.36184 17.1709 7.65517 15.8284 7.65517H13.3992C12.7853 7.65517 12.243 7.25521 12.0617 6.66868L11.3375 4.32637C10.9309 3.01106 9.0691 3.01106 8.66246 4.32637L7.93832 6.66868C7.75699 7.25521 7.21469 7.65517 6.60078 7.65517H4.12961C2.79142 7.65517 2.21592 9.35274 3.27822 10.1665L5.39469 11.7879C5.85885 12.1435 6.05314 12.7501 5.88196 13.3092L5.11296 15.8207C4.71416 17.1232 6.22167 18.1704 7.30301 17.342L9.14861 15.9281C9.65097 15.5432 10.349 15.5432 10.8514 15.9281L12.6807 17.3295C13.7636 18.159 15.2725 17.1079 14.8696 15.8046L14.09 13.2827C13.9159 12.7198 14.113 12.1081 14.5829 11.7526L16.673 10.1717Z" fill="#FFAD33"/>
<path d="M36.673 10.1717C37.7437 9.36184 37.1709 7.65517 35.8284 7.65517H33.3992C32.7853 7.65517 32.243 7.25521 32.0617 6.66868L31.3375 4.32637C30.9309 3.01106 29.0691 3.01106 28.6625 4.32637L27.9383 6.66868C27.757 7.25521 27.2147 7.65517 26.6008 7.65517H24.1296C22.7914 7.65517 22.2159 9.35274 23.2782 10.1665L25.3947 11.7879C25.8588 12.1435 26.0531 12.7501 25.882 13.3092L25.113 15.8207C24.7142 17.1232 26.2217 18.1704 27.303 17.342L29.1486 15.9281C29.651 15.5432 30.349 15.5432 30.8514 15.9281L32.6807 17.3295C33.7636 18.159 35.2725 17.1079 34.8696 15.8046L34.09 13.2827C33.9159 12.7198 34.113 12.1081 34.5829 11.7526L36.673 10.1717Z" fill="#FFAD33"/>
<path d="M56.673 10.1717C57.7437 9.36184 57.1709 7.65517 55.8284 7.65517H53.3992C52.7853 7.65517 52.243 7.25521 52.0617 6.66868L51.3375 4.32637C50.9309 3.01106 49.0691 3.01106 48.6625 4.32637L47.9383 6.66868C47.757 7.25521 47.2147 7.65517 46.6008 7.65517H44.1296C42.7914 7.65517 42.2159 9.35274 43.2782 10.1665L45.3947 11.7879C45.8588 12.1435 46.0531 12.7501 45.882 13.3092L45.113 15.8207C44.7142 17.1232 46.2217 18.1704 47.303 17.342L49.1486 15.9281C49.651 15.5432 50.349 15.5432 50.8514 15.9281L52.6807 17.3295C53.7636 18.159 55.2725 17.1079 54.8696 15.8046L54.09 13.2827C53.9159 12.7198 54.113 12.1081 54.5829 11.7526L56.673 10.1717Z" fill="#FFAD33"/>
<path d="M76.673 10.1717C77.7437 9.36184 77.1709 7.65517 75.8284 7.65517H73.3992C72.7853 7.65517 72.243 7.25521 72.0617 6.66868L71.3375 4.32637C70.9309 3.01106 69.0691 3.01106 68.6625 4.32637L67.9383 6.66868C67.757 7.25521 67.2147 7.65517 66.6008 7.65517H64.1296C62.7914 7.65517 62.2159 9.35274 63.2782 10.1665L65.3947 11.7879C65.8588 12.1435 66.0531 12.7501 65.882 13.3092L65.113 15.8207C64.7142 17.1232 66.2217 18.1704 67.303 17.342L69.1486 15.9281C69.651 15.5432 70.349 15.5432 70.8514 15.9281L72.6807 17.3295C73.7636 18.159 75.2725 17.1079 74.8696 15.8046L74.09 13.2827C73.9159 12.7198 74.113 12.1081 74.5829 11.7526L76.673 10.1717Z" fill="#FFAD33"/>
<path d="M96.673 10.1717C97.7437 9.36184 97.1709 7.65517 95.8284 7.65517H93.3992C92.7853 7.65517 92.243 7.25521 92.0617 6.66868L91.3375 4.32637C90.9309 3.01106 89.0691 3.01106 88.6625 4.32637L87.9383 6.66868C87.757 7.25521 87.2147 7.65517 86.6008 7.65517H84.1296C82.7914 7.65517 82.2159 9.35274 83.2782 10.1665L85.3947 11.7879C85.8588 12.1435 86.0531 12.7501 85.882 13.3092L85.113 15.8207C84.7142 17.1232 86.2217 18.1704 87.303 17.342L89.1486 15.9281C89.651 15.5432 90.349 15.5432 90.8514 15.9281L92.6807 17.3295C93.7636 18.159 95.2725 17.1079 94.8696 15.8046L94.09 13.2827C93.9159 12.7198 94.113 12.1081 94.5829 11.7526L96.673 10.1717Z" fill="#FFAD33"/>
<path opacity="0.5" d="M112.354 17.758C111.449 16.8807 110.744 15.7607 110.24 14.398C109.745 13.0353 109.498 11.5747 109.498 10.016C109.498 8.42 109.759 6.922 110.282 5.522C110.805 4.11267 111.565 2.96 112.564 2.064H114.538V2.246C113.511 3.226 112.727 4.402 112.186 5.774C111.654 7.146 111.388 8.56 111.388 10.016C111.388 11.4347 111.64 12.8067 112.144 14.132C112.657 15.448 113.385 16.5913 114.328 17.562V17.758H112.354ZM115.565 7.482C115.612 6.54867 115.938 5.83 116.545 5.326C117.161 4.81267 117.968 4.556 118.967 4.556C119.648 4.556 120.232 4.67733 120.717 4.92C121.202 5.15333 121.566 5.47533 121.809 5.886C122.061 6.28733 122.187 6.74467 122.187 7.258C122.187 7.846 122.033 8.34533 121.725 8.756C121.426 9.15733 121.067 9.428 120.647 9.568V9.624C121.188 9.792 121.608 10.0907 121.907 10.52C122.215 10.9493 122.369 11.5 122.369 12.172C122.369 12.732 122.238 13.2313 121.977 13.67C121.725 14.1087 121.347 14.454 120.843 14.706C120.348 14.9487 119.751 15.07 119.051 15.07C117.996 15.07 117.138 14.804 116.475 14.272C115.812 13.74 115.462 12.956 115.425 11.92H117.329C117.348 12.3773 117.502 12.746 117.791 13.026C118.09 13.2967 118.496 13.432 119.009 13.432C119.485 13.432 119.849 13.3013 120.101 13.04C120.362 12.7693 120.493 12.424 120.493 12.004C120.493 11.444 120.316 11.0427 119.961 10.8C119.606 10.5573 119.056 10.436 118.309 10.436H117.903V8.826H118.309C119.634 8.826 120.297 8.38267 120.297 7.496C120.297 7.09467 120.176 6.782 119.933 6.558C119.7 6.334 119.359 6.222 118.911 6.222C118.472 6.222 118.132 6.34333 117.889 6.586C117.656 6.81933 117.52 7.118 117.483 7.482H115.565ZM130.778 6.488H126.242V8.882C126.438 8.63933 126.718 8.44333 127.082 8.294C127.446 8.13533 127.833 8.056 128.244 8.056C128.99 8.056 129.602 8.21933 130.078 8.546C130.554 8.87267 130.899 9.29267 131.114 9.806C131.328 10.31 131.436 10.8513 131.436 11.43C131.436 12.5033 131.128 13.3667 130.512 14.02C129.905 14.6733 129.037 15 127.908 15C126.844 15 125.994 14.734 125.36 14.202C124.725 13.67 124.366 12.9747 124.282 12.116H126.186C126.27 12.4893 126.456 12.788 126.746 13.012C127.044 13.236 127.422 13.348 127.88 13.348C128.43 13.348 128.846 13.1753 129.126 12.83C129.406 12.4847 129.546 12.0273 129.546 11.458C129.546 10.8793 129.401 10.4407 129.112 10.142C128.832 9.834 128.416 9.68 127.866 9.68C127.474 9.68 127.147 9.778 126.886 9.974C126.624 10.17 126.438 10.4313 126.326 10.758H124.45V4.766H130.778V6.488ZM132.648 17.758V17.562C133.59 16.5913 134.314 15.448 134.818 14.132C135.331 12.8067 135.588 11.4347 135.588 10.016C135.588 8.56 135.317 7.146 134.776 5.774C134.244 4.402 133.464 3.226 132.438 2.246V2.064H134.412C135.41 2.96 136.171 4.11267 136.694 5.522C137.216 6.922 137.478 8.42 137.478 10.016C137.478 11.5747 137.226 13.0353 136.722 14.398C136.227 15.7607 135.527 16.8807 134.622 17.758H132.648Z" fill="black"/>
</svg>
