<svg width="76" height="48" viewBox="0 0 76 48" fill="none" xmlns="http://www.w3.org/2000/svg">
<rect x="1.25" y="1.25" width="73.5" height="45.5" rx="4.75" stroke="black" stroke-opacity="0.4" stroke-width="1.5"/>
<path d="M14.992 24.096C14.992 22.2613 15.2907 20.832 15.888 19.808C16.4853 18.7733 17.5307 18.256 19.024 18.256C20.5067 18.256 21.5467 18.7733 22.144 19.808C22.7413 20.832 23.04 22.2613 23.04 24.096C23.04 25.9627 22.7413 27.4133 22.144 28.448C21.5467 29.4827 20.5067 30 19.024 30C17.5307 30 16.4853 29.4827 15.888 28.448C15.2907 27.4133 14.992 25.9627 14.992 24.096ZM21.6 24.096C21.6 23.168 21.536 22.384 21.408 21.744C21.2907 21.0933 21.04 20.5707 20.656 20.176C20.2827 19.7813 19.7387 19.584 19.024 19.584C18.2987 19.584 17.744 19.7813 17.36 20.176C16.9867 20.5707 16.736 21.0933 16.608 21.744C16.4907 22.384 16.432 23.168 16.432 24.096C16.432 25.056 16.4907 25.8613 16.608 26.512C16.736 27.1627 16.9867 27.6853 17.36 28.08C17.744 28.4747 18.2987 28.672 19.024 28.672C19.7387 28.672 20.2827 28.4747 20.656 28.08C21.04 27.6853 21.2907 27.1627 21.408 26.512C21.536 25.8613 21.6 25.056 21.6 24.096ZM24.8629 28.832C26.2175 27.744 27.2789 26.8533 28.0469 26.16C28.8149 25.456 29.4602 24.7253 29.9829 23.968C30.5162 23.2 30.7829 22.448 30.7829 21.712C30.7829 21.0187 30.6122 20.4747 30.2709 20.08C29.9402 19.6747 29.4015 19.472 28.6549 19.472C27.9295 19.472 27.3642 19.7013 26.9589 20.16C26.5642 20.608 26.3509 21.2107 26.3189 21.968H24.9109C24.9535 20.7733 25.3162 19.8507 25.9989 19.2C26.6815 18.5493 27.5615 18.224 28.6389 18.224C29.7375 18.224 30.6069 18.528 31.2469 19.136C31.8975 19.744 32.2229 20.5813 32.2229 21.648C32.2229 22.5333 31.9562 23.3973 31.4229 24.24C30.9002 25.072 30.3029 25.808 29.6309 26.448C28.9589 27.0773 28.1002 27.8133 27.0549 28.656H32.5589V29.872H24.8629V28.832Z" fill="black"/>
<path d="M53.7573 15.3667L50.4573 18.6667L49.5146 17.724L53.7573 13.4814L58 17.724L57.0573 18.6667L53.7573 15.3667Z" fill="black"/>
<path d="M54.2427 32.6333L57.5427 29.3333L58.4854 30.276L54.2427 34.5186L50 30.276L50.9427 29.3333L54.2427 32.6333Z" fill="black"/>
</svg>
