<svg width="76" height="48" viewBox="0 0 76 48" fill="none" xmlns="http://www.w3.org/2000/svg">
<rect x="1.25" y="1.25" width="73.5" height="45.5" rx="4.75" stroke="black" stroke-opacity="0.4" stroke-width="1.5"/>
<path d="M14.992 24.096C14.992 22.2613 15.2907 20.832 15.888 19.808C16.4853 18.7733 17.5307 18.256 19.024 18.256C20.5067 18.256 21.5467 18.7733 22.144 19.808C22.7413 20.832 23.04 22.2613 23.04 24.096C23.04 25.9627 22.7413 27.4133 22.144 28.448C21.5467 29.4827 20.5067 30 19.024 30C17.5307 30 16.4853 29.4827 15.888 28.448C15.2907 27.4133 14.992 25.9627 14.992 24.096ZM21.6 24.096C21.6 23.168 21.536 22.384 21.408 21.744C21.2907 21.0933 21.04 20.5707 20.656 20.176C20.2827 19.7813 19.7387 19.584 19.024 19.584C18.2987 19.584 17.744 19.7813 17.36 20.176C16.9867 20.5707 16.736 21.0933 16.608 21.744C16.4907 22.384 16.432 23.168 16.432 24.096C16.432 25.056 16.4907 25.8613 16.608 26.512C16.736 27.1627 16.9867 27.6853 17.36 28.08C17.744 28.4747 18.2987 28.672 19.024 28.672C19.7387 28.672 20.2827 28.4747 20.656 28.08C21.04 27.6853 21.2907 27.1627 21.408 26.512C21.536 25.8613 21.6 25.056 21.6 24.096ZM24.6549 19.76V18.432H27.6629V30H26.1909V19.76H24.6549Z" fill="black"/>
<path d="M53.7573 15.3667L50.4573 18.6667L49.5146 17.724L53.7573 13.4813L58 17.724L57.0573 18.6667L53.7573 15.3667Z" fill="black"/>
<path d="M54.2427 32.6333L57.5427 29.3333L58.4854 30.276L54.2427 34.5187L50 30.276L50.9427 29.3333L54.2427 32.6333Z" fill="black"/>
</svg>
